# xmcd
#
# Track frame offsets:
#	150
#	18262
#	31461
#	45092
#	56213
#	71734
#	83341
#	101588
#	113411
#	126826
#	138595
#	151011
#	164831
#	176303
#	188503
#	201675
#
# Disc length: 2844 seconds
#
# Revision: 0
# Processed by: cddbd v1.4PL0 Copyright (c) Steve Scherf et al.
# Submitted via: dBpowerAMP V4.0
#
DISCID=ce0b1a10
DTITLE=Teodoro and Sampaio - Romanticas - Vol. 1
DYEAR=1900
DGENRE=Country
TTITLE0=Paixão proibída
TTITLE1=Vestido de seda
TTITLE2=Casaca verde
TTITLE3=Passe livre
TTITLE4=Quando a saudade aperta
TTITLE5=Estrela caída
TTITLE6=Delícia de amor
TTITLE7=Carísma
TTITLE8=Não sou páreo para você
TTITLE9=Banho de amor
TTITLE10=Amando escondido
TTITLE11=Mentira
TTITLE12=Morena criminosa
TTITLE13=Sete noites de paixão
TTITLE14=Oi paixão
TTITLE15=Parabéns aos seus 15 anos
EXTD=
EXTT0=
EXTT1=
EXTT2=
EXTT3=
EXTT4=
EXTT5=
EXTT6=
EXTT7=
EXTT8=
EXTT9=
EXTT10=
EXTT11=
EXTT12=
EXTT13=
EXTT14=
EXTT15=
PLAYORDER=
